# xmcd
# 
# Track frame offsets:
#     150
#     26736
#     55686
#     81281
#     120304
#     143263
#     174657
# 
# Disc length: 2663
# 
# Revision: 0
# Processed by: cddbd v1.5.2PL0 Copyright (c) Steve Scherf et al.
# Submitted via: BonkEnc v1.0.8
# 
DISCID=4e0a6507
DTITLE=Pastor Joseph Prince - The Incense that Protects
DYEAR=2003
DGENRE=Sermon
TTITLE0=The Incense that Protects 11
TTITLE1=The Incense that Protects 12
TTITLE2=The Incense that Protects 13
TTITLE3=The Incense that Protects 14
TTITLE4=The Incense that Protects 15
TTITLE5=The Incense that Protects 16
TTITLE6=The Incense that Protects 17
EXTD=New Creation Church\nMidweek Service \n23/03/03
EXTT0=
EXTT1=
EXTT2=
EXTT3=
EXTT4=
EXTT5=
EXTT6=
PLAYORDER=
